<?xml version="1.0" encoding="utf-8"?>
<!-- Generator: Adobe Illustrator 16.0.5, SVG Export Plug-In . SVG Version: 6.00 Build 0)  -->
<!DOCTYPE svg PUBLIC "-//W3C//DTD SVG 1.1//EN" "http://www.w3.org/Graphics/SVG/1.1/DTD/svg11.dtd">
<svg version="1.1" id="Layer_1" xmlns="http://www.w3.org/2000/svg" xmlns:xlink="http://www.w3.org/1999/xlink" x="0px" y="0px"
	 width="1077px" height="406px" viewBox="0 0 1077 406" enable-background="new 0 0 1077 406" xml:space="preserve">
<g id="frame_bottom_1_">
	<path fill="#FFFFFF" d="M460.106,197.523l0.064,53.416l-143.286,39.796l-149.713-39.823v-53.389
		C167.171,197.523,319.64,171.848,460.106,197.523z"/>
	<path fill="none" stroke="#0CA0DB" stroke-width="6" stroke-miterlimit="10" d="M460.106,197.523l0.064,53.416l-143.286,39.796
		l-149.713-39.823v-53.389C167.171,197.523,319.64,171.848,460.106,197.523z"/>
</g>
<g id="stars">
	<polygon fill="#CC4E45" points="316.335,224.903 322.093,236.572 334.972,238.443 325.655,247.526 327.854,260.354 
		316.335,254.295 304.817,260.354 307.016,247.526 297.697,238.443 310.573,236.572 	"/>
	<polygon fill="#CC4E45" points="210.201,220.943 211.716,224.015 215.108,224.508 212.655,226.9 213.234,230.277 210.201,228.683 
		207.168,230.277 207.747,226.9 205.293,224.508 208.684,224.015 	"/>
	<polygon fill="#CC4E45" points="358.11,230.017 354.402,237.533 346.108,238.737 352.108,244.59 350.69,252.851 358.11,248.949 
		365.532,252.851 364.113,244.59 370.115,238.737 361.822,237.533 	"/>
	<polygon fill="#CC4E45" points="391.318,225.61 388.943,230.425 383.629,231.197 387.472,234.943 386.565,240.235 391.318,237.736 
		396.071,240.235 395.163,234.943 399.007,231.197 393.695,230.425 	"/>
	<polygon fill="#CC4E45" points="272.687,228.82 276.395,236.334 284.689,237.539 278.688,243.39 280.106,251.651 272.687,247.749 
		265.267,251.651 266.686,243.39 260.683,237.539 268.976,236.334 	"/>
	<polygon fill="#CC4E45" points="236.469,225.61 238.843,230.425 244.156,231.196 240.313,234.943 241.22,240.235 236.469,237.737 
		231.716,240.235 232.623,234.943 228.778,231.196 234.09,230.425 	"/>
	<polygon fill="#CC4E45" points="417.797,219.129 419.311,222.202 422.704,222.694 420.25,225.086 420.828,228.462 417.797,226.869 
		414.762,228.462 415.342,225.086 412.889,222.694 416.278,222.202 	"/>
</g>
<g id="frame_top_1_">
	<path fill="#0CA0DB" d="M167.171,197.523v-93.805l149.683-48.292l143.144,48.292l0.109,93.805
		C460.106,197.523,316.829,176.416,167.171,197.523z"/>
	<path fill="none" stroke="#0CA0DB" stroke-width="6" stroke-miterlimit="10" d="M167.171,197.523v-93.805l149.683-48.292
		l143.144,48.292l0.109,93.805C460.106,197.523,316.829,176.416,167.171,197.523z"/>
</g>
<g id="pillars_1_">
	<defs>
		<path id="frame_top_2_" d="M166.81,197.523v-93.805l149.683-48.292l143.144,48.292l0.109,93.805
			C459.745,197.523,316.468,176.416,166.81,197.523z"/>
	</defs>
	<clipPath id="frame_top_4_">
		<use xlink:href="#frame_top_2_"  overflow="visible"/>
	</clipPath>
	<g id="pillar_5_1_" clip-path="url(#frame_top_4_)">
		<g id="pillar_9_">
			<polygon fill="none" stroke="#FFFFFF" stroke-width="0.9092" stroke-miterlimit="10" points="424.825,200.301 422.488,116.379 
				421.364,116.379 423.483,200.301 			"/>
			<polygon fill="none" stroke="#FFFFFF" stroke-width="0.9092" stroke-miterlimit="10" points="423.483,200.301 421.364,116.379 
				418.946,116.379 420.83,200.301 			"/>
			<polygon fill="none" stroke="#FFFFFF" stroke-width="0.9092" stroke-miterlimit="10" points="420.83,200.301 418.946,116.379 
				416.135,116.379 417.381,200.301 			"/>
			<polygon fill="none" stroke="#FFFFFF" stroke-width="0.9092" stroke-miterlimit="10" points="417.381,200.301 416.135,116.379 
				412.675,116.379 413.418,200.301 			"/>
			<polygon fill="none" stroke="#FFFFFF" stroke-width="0.9092" stroke-miterlimit="10" points="398.274,200.301 400.392,116.379 
				399.267,116.379 396.929,200.301 			"/>
			<polygon fill="none" stroke="#FFFFFF" stroke-width="0.9092" stroke-miterlimit="10" points="400.924,200.301 402.808,116.379 
				400.392,116.379 398.274,200.301 			"/>
			<polygon fill="none" stroke="#FFFFFF" stroke-width="0.9092" stroke-miterlimit="10" points="404.375,200.301 405.619,116.379 
				402.808,116.379 400.924,200.301 			"/>
			<polygon fill="none" stroke="#FFFFFF" stroke-width="0.9092" stroke-miterlimit="10" points="408.338,200.301 409.08,116.379 
				405.619,116.379 404.375,200.301 			"/>
			<polygon fill="none" stroke="#FFFFFF" stroke-width="0.9092" stroke-miterlimit="10" points="413.418,200.301 412.675,116.379 
				409.08,116.379 408.338,200.301 			"/>
		</g>
		<path id="cap_9_" fill="#FFFFFF" d="M429.602,103.654h-14.729h-3.751h-0.193h-14.536h-3.945v6.288h1.43c0,0-0.507,0-0.756,0.232
			c-0.331,0.312-0.283,0.693-0.217,0.945c0.086,0.335,0.25,0.503,0.25,0.503l2.941,2.995l1.854,1.531h3.945h9.035h0.193h3.751h9.227
			l1.855-1.531l2.939-2.995c0,0,0.166-0.168,0.252-0.503c0.065-0.252,0.113-0.633-0.219-0.945c-0.245-0.232-0.756-0.232-0.756-0.232
			h1.431V103.654z"/>
	</g>
	<g id="pillar_4_1_" clip-path="url(#frame_top_4_)">
		<g id="pillar_8_">
			<polygon fill="none" stroke="#FFFFFF" stroke-miterlimit="10" points="380.469,198.601 377.899,106.295 376.662,106.295 
				378.993,198.601 			"/>
			<polygon fill="none" stroke="#FFFFFF" stroke-miterlimit="10" points="378.993,198.601 376.662,106.295 374.003,106.295 
				376.075,198.601 			"/>
			<polygon fill="none" stroke="#FFFFFF" stroke-miterlimit="10" points="376.075,198.601 374.003,106.295 370.911,106.295 
				372.282,198.601 			"/>
			<polygon fill="none" stroke="#FFFFFF" stroke-miterlimit="10" points="372.282,198.601 370.911,106.295 367.105,106.295 
				367.922,198.601 			"/>
			<polygon fill="none" stroke="#FFFFFF" stroke-miterlimit="10" points="351.266,198.601 353.595,106.295 352.357,106.295 
				349.786,198.601 			"/>
			<polygon fill="none" stroke="#FFFFFF" stroke-miterlimit="10" points="354.18,198.601 356.252,106.295 353.595,106.295 
				351.266,198.601 			"/>
			<polygon fill="none" stroke="#FFFFFF" stroke-miterlimit="10" points="357.976,198.601 359.344,106.295 356.252,106.295 
				354.18,198.601 			"/>
			<polygon fill="none" stroke="#FFFFFF" stroke-miterlimit="10" points="362.334,198.601 363.151,106.295 359.344,106.295 
				357.976,198.601 			"/>
			<polygon fill="none" stroke="#FFFFFF" stroke-miterlimit="10" points="367.922,198.601 367.105,106.295 363.151,106.295 
				362.334,198.601 			"/>
		</g>
		<path id="cap_8_" fill="#FFFFFF" d="M385.723,92.299h-16.2h-4.126h-0.213h-15.988h-4.339v6.916h1.573c0,0-0.559,0-0.832,0.255
			c-0.364,0.343-0.311,0.762-0.239,1.04c0.095,0.369,0.275,0.553,0.275,0.553l3.234,3.294l2.039,1.684h4.339h9.937h0.213h4.126
			h10.148l2.041-1.684l3.232-3.294c0,0,0.182-0.185,0.277-0.553c0.071-0.277,0.125-0.696-0.241-1.04
			c-0.27-0.255-0.832-0.255-0.832-0.255h1.574V92.299z"/>
	</g>
	<g id="pillar_3_1_" clip-path="url(#frame_top_4_)">
		<g id="pillar_7_">
			<polygon fill="none" stroke="#FFFFFF" stroke-miterlimit="10" points="331.827,192.29 329.256,99.984 328.02,99.984 
				330.35,192.29 			"/>
			<polygon fill="none" stroke="#FFFFFF" stroke-miterlimit="10" points="330.35,192.29 328.02,99.984 325.36,99.984 
				327.432,192.29 			"/>
			<polygon fill="none" stroke="#FFFFFF" stroke-miterlimit="10" points="327.432,192.29 325.36,99.984 322.268,99.984 
				323.639,192.29 			"/>
			<polygon fill="none" stroke="#FFFFFF" stroke-miterlimit="10" points="323.639,192.29 322.268,99.984 318.462,99.984 
				319.28,192.29 			"/>
			<polygon fill="none" stroke="#FFFFFF" stroke-miterlimit="10" points="302.623,192.29 304.952,99.984 303.715,99.984 
				301.144,192.29 			"/>
			<polygon fill="none" stroke="#FFFFFF" stroke-miterlimit="10" points="305.538,192.29 307.61,99.984 304.952,99.984 
				302.623,192.29 			"/>
			<polygon fill="none" stroke="#FFFFFF" stroke-miterlimit="10" points="309.333,192.29 310.702,99.984 307.61,99.984 
				305.538,192.29 			"/>
			<polygon fill="none" stroke="#FFFFFF" stroke-miterlimit="10" points="313.692,192.29 314.509,99.984 310.702,99.984 
				309.333,192.29 			"/>
			<polygon fill="none" stroke="#FFFFFF" stroke-miterlimit="10" points="319.28,192.29 318.462,99.984 314.509,99.984 
				313.692,192.29 			"/>
		</g>
		<path id="cap_7_" fill="#FFFFFF" d="M337.081,85.988h-16.2h-4.126h-0.213h-15.988h-4.339v6.916h1.573c0,0-0.559,0-0.832,0.255
			c-0.364,0.343-0.311,0.762-0.239,1.04c0.095,0.369,0.275,0.553,0.275,0.553l3.234,3.294l2.039,1.684h4.339h9.937h0.213h4.126
			h10.148l2.041-1.684l3.232-3.294c0,0,0.182-0.185,0.277-0.553c0.071-0.277,0.125-0.696-0.241-1.04
			c-0.27-0.255-0.832-0.255-0.832-0.255h1.574V85.988z"/>
	</g>
	<g id="pillar_2_1_" clip-path="url(#frame_top_4_)">
		<g id="pillar_6_">
			<polygon fill="none" stroke="#FFFFFF" stroke-miterlimit="10" points="281.063,197.523 278.493,105.218 277.256,105.218 
				279.587,197.523 			"/>
			<polygon fill="none" stroke="#FFFFFF" stroke-miterlimit="10" points="279.587,197.523 277.256,105.218 274.597,105.218 
				276.669,197.523 			"/>
			<polygon fill="none" stroke="#FFFFFF" stroke-miterlimit="10" points="276.669,197.523 274.597,105.218 271.505,105.218 
				272.876,197.523 			"/>
			<polygon fill="none" stroke="#FFFFFF" stroke-miterlimit="10" points="272.876,197.523 271.505,105.218 267.699,105.218 
				268.517,197.523 			"/>
			<polygon fill="none" stroke="#FFFFFF" stroke-miterlimit="10" points="251.86,197.523 254.189,105.218 252.952,105.218 
				250.38,197.523 			"/>
			<polygon fill="none" stroke="#FFFFFF" stroke-miterlimit="10" points="254.774,197.523 256.847,105.218 254.189,105.218 
				251.86,197.523 			"/>
			<polygon fill="none" stroke="#FFFFFF" stroke-miterlimit="10" points="258.57,197.523 259.938,105.218 256.847,105.218 
				254.774,197.523 			"/>
			<polygon fill="none" stroke="#FFFFFF" stroke-miterlimit="10" points="262.929,197.523 263.746,105.218 259.938,105.218 
				258.57,197.523 			"/>
			<polygon fill="none" stroke="#FFFFFF" stroke-miterlimit="10" points="268.517,197.523 267.699,105.218 263.746,105.218 
				262.929,197.523 			"/>
		</g>
		<path id="cap_6_" fill="#FFFFFF" d="M286.317,91.222h-16.2h-4.126h-0.213h-15.988h-4.339v6.916h1.573c0,0-0.559,0-0.832,0.255
			c-0.364,0.343-0.311,0.762-0.239,1.04c0.095,0.369,0.275,0.553,0.275,0.553l3.234,3.294l2.039,1.684h4.339h9.937h0.213h4.126
			h10.148l2.041-1.684l3.232-3.294c0,0,0.182-0.185,0.277-0.553c0.071-0.277,0.125-0.696-0.241-1.04
			c-0.27-0.255-0.832-0.255-0.832-0.255h1.574V91.222z"/>
	</g>
	<g id="pillar_1_1_" clip-path="url(#frame_top_4_)">
		<g id="pillar_5_">
			<polygon fill="none" stroke="#FFFFFF" stroke-width="0.9092" stroke-miterlimit="10" points="235.709,200.301 233.372,116.379 
				232.248,116.379 234.367,200.301 			"/>
			<polygon fill="none" stroke="#FFFFFF" stroke-width="0.9092" stroke-miterlimit="10" points="234.367,200.301 232.248,116.379 
				229.83,116.379 231.714,200.301 			"/>
			<polygon fill="none" stroke="#FFFFFF" stroke-width="0.9092" stroke-miterlimit="10" points="231.714,200.301 229.83,116.379 
				227.019,116.379 228.265,200.301 			"/>
			<polygon fill="none" stroke="#FFFFFF" stroke-width="0.9092" stroke-miterlimit="10" points="228.265,200.301 227.019,116.379 
				223.559,116.379 224.302,200.301 			"/>
			<polygon fill="none" stroke="#FFFFFF" stroke-width="0.9092" stroke-miterlimit="10" points="209.158,200.301 211.275,116.379 
				210.15,116.379 207.813,200.301 			"/>
			<polygon fill="none" stroke="#FFFFFF" stroke-width="0.9092" stroke-miterlimit="10" points="211.808,200.301 213.692,116.379 
				211.275,116.379 209.158,200.301 			"/>
			<polygon fill="none" stroke="#FFFFFF" stroke-width="0.9092" stroke-miterlimit="10" points="215.258,200.301 216.503,116.379 
				213.692,116.379 211.808,200.301 			"/>
			<polygon fill="none" stroke="#FFFFFF" stroke-width="0.9092" stroke-miterlimit="10" points="219.222,200.301 219.964,116.379 
				216.503,116.379 215.258,200.301 			"/>
			<polygon fill="none" stroke="#FFFFFF" stroke-width="0.9092" stroke-miterlimit="10" points="224.302,200.301 223.559,116.379 
				219.964,116.379 219.222,200.301 			"/>
		</g>
		<path id="cap_5_" fill="#FFFFFF" d="M240.486,103.654h-14.729h-3.751h-0.193h-14.536h-3.945v6.288h1.43c0,0-0.507,0-0.756,0.232
			c-0.331,0.312-0.283,0.693-0.217,0.945c0.086,0.335,0.25,0.503,0.25,0.503l2.941,2.995l1.854,1.531h3.945h9.035h0.193h3.751h9.227
			l1.855-1.531l2.939-2.995c0,0,0.166-0.168,0.252-0.503c0.065-0.252,0.113-0.633-0.219-0.945c-0.245-0.232-0.756-0.232-0.756-0.232
			h1.431V103.654z"/>
	</g>
</g>
<path id="NCLL" fill="#FFFFFF" d="M642.333,117.729v142.625h-17.229c-2.545,0-4.684-0.407-6.412-1.224
	c-1.729-0.815-3.443-2.234-5.139-4.258l-67.25-85.066c0.26,2.545,0.44,5.009,0.539,7.391c0.098,2.383,0.147,4.618,0.147,6.706
	v76.452h-29.171V117.729h17.424c1.435,0,2.643,0.066,3.622,0.196c0.979,0.132,1.86,0.376,2.643,0.734
	c0.783,0.359,1.533,0.866,2.251,1.517c0.717,0.653,1.533,1.534,2.447,2.643l67.837,85.653c-0.328-2.741-0.555-5.399-0.686-7.978
	c-0.131-2.577-0.196-5.008-0.196-7.293v-75.473H642.333z M766.064,223.449c0.783,0,1.566,0.147,2.35,0.44
	c0.783,0.294,1.531,0.8,2.25,1.518l13.117,13.802c-5.742,7.505-12.938,13.166-21.584,16.984c-8.648,3.817-18.877,5.727-30.688,5.727
	c-10.834,0-20.543-1.843-29.123-5.531c-8.582-3.687-15.857-8.776-21.828-15.271c-5.973-6.493-10.558-14.194-13.754-23.102
	c-3.198-8.908-4.796-18.583-4.796-29.024c0-10.636,1.728-20.41,5.188-29.318c3.458-8.908,8.32-16.592,14.585-23.053
	c6.266-6.46,13.77-11.485,22.514-15.075c8.746-3.588,18.371-5.384,28.879-5.384c5.35,0,10.391,0.474,15.123,1.419
	c4.73,0.947,9.152,2.251,13.264,3.916s7.896,3.671,11.355,6.02c3.459,2.35,6.525,4.895,9.201,7.635l-11.158,14.977
	c-0.719,0.915-1.566,1.747-2.545,2.497c-0.98,0.751-2.35,1.125-4.111,1.125c-1.176,0-2.285-0.26-3.328-0.783
	c-1.045-0.521-2.154-1.158-3.328-1.909c-1.176-0.75-2.465-1.566-3.867-2.447c-1.404-0.881-3.068-1.696-4.992-2.447
	c-1.926-0.75-4.178-1.386-6.756-1.909c-2.578-0.521-5.596-0.783-9.055-0.783c-5.48,0-10.49,1.013-15.025,3.035
	c-4.537,2.023-8.451,4.977-11.746,8.859c-3.297,3.883-5.842,8.648-7.637,14.292c-1.795,5.646-2.691,12.089-2.691,19.333
	c0,7.31,0.994,13.802,2.986,19.48c1.99,5.678,4.699,10.459,8.125,14.341c3.426,3.883,7.422,6.837,11.99,8.859
	c4.568,2.023,9.463,3.035,14.684,3.035c3.002,0,5.742-0.147,8.223-0.44c2.48-0.294,4.797-0.783,6.951-1.468
	c2.152-0.686,4.176-1.599,6.068-2.741c1.893-1.141,3.818-2.594,5.775-4.356c0.783-0.651,1.631-1.19,2.545-1.615
	C764.139,223.662,765.086,223.449,766.064,223.449z M884.214,233.923v26.43h-85.946V117.729h33.086v116.195H884.214z
	 M986.996,233.923v26.43H901.05V117.729h33.086v116.195H986.996z"/>
<path id="middle_swoosh_1_" fill="#0CA0DB" stroke="#FFFFFF" stroke-width="2" stroke-miterlimit="10" d="M577.471,214.79
	c-212.327-46.297-299.661-44.388-528.386-0.221v2.392c221.4-30.648,314.515-31.292,528.386-0.526V214.79z"/>
<path id="full-name" fill="#FFFFFF" d="M93.905,308.918v27.273h-2.107c-0.325,0-0.595-0.057-0.809-0.172
	c-0.215-0.113-0.433-0.297-0.654-0.551l-15.818-19.922c0.026,0.342,0.048,0.678,0.068,1.007s0.029,0.639,0.029,0.931v18.708h-3.647
	v-27.273h2.146c0.364,0,0.637,0.041,0.819,0.123c0.182,0.083,0.383,0.27,0.604,0.561l15.857,19.941
	c-0.039-0.367-0.068-0.725-0.087-1.073c-0.02-0.348-0.029-0.674-0.029-0.978v-18.574H93.905z M127.238,336.191h-3.199
	c-0.364,0-0.663-0.09-0.897-0.266c-0.234-0.178-0.403-0.406-0.507-0.684l-2.477-6.325h-12.347l-2.477,6.325
	c-0.091,0.24-0.26,0.459-0.507,0.654c-0.247,0.197-0.546,0.295-0.897,0.295h-3.199l11.157-27.273h4.193L127.238,336.191z
	 M119.026,326.03l-4.154-10.579c-0.299-0.722-0.599-1.633-0.897-2.735c-0.143,0.544-0.29,1.051-0.439,1.519
	c-0.149,0.469-0.296,0.887-0.439,1.253l-4.135,10.541H119.026z M150.39,312.299h-8.894v23.893h-4.135v-23.893h-8.933v-3.38h21.962
	V312.299z M161.917,336.191h-4.174v-27.273h4.174V336.191z M198.234,322.555c0,2.039-0.335,3.909-1.004,5.612
	c-0.67,1.703-1.616,3.172-2.838,4.406s-2.685,2.193-4.388,2.878c-1.704,0.684-3.596,1.025-5.676,1.025
	c-2.067,0-3.956-0.342-5.666-1.025c-1.71-0.686-3.173-1.644-4.389-2.878s-2.162-2.703-2.838-4.406
	c-0.676-1.703-1.014-3.573-1.014-5.612c0-2.026,0.338-3.894,1.014-5.603c0.676-1.709,1.622-3.181,2.838-4.416
	s2.679-2.196,4.389-2.887c1.71-0.69,3.599-1.035,5.666-1.035c2.081,0,3.973,0.345,5.676,1.035c1.703,0.69,3.166,1.652,4.388,2.887
	s2.168,2.707,2.838,4.416C197.899,318.661,198.234,320.529,198.234,322.555z M193.982,322.555c0-1.621-0.228-3.077-0.683-4.368
	s-1.102-2.387-1.94-3.286s-1.853-1.589-3.043-2.07c-1.189-0.481-2.52-0.722-3.989-0.722s-2.799,0.241-3.988,0.722
	c-1.19,0.481-2.208,1.171-3.053,2.07s-1.496,1.994-1.951,3.286s-0.683,2.748-0.683,4.368c0,1.633,0.228,3.093,0.683,4.377
	c0.455,1.285,1.105,2.377,1.951,3.276c0.845,0.898,1.863,1.586,3.053,2.061c1.189,0.475,2.519,0.712,3.988,0.712
	s2.799-0.237,3.989-0.712c1.19-0.475,2.204-1.162,3.043-2.061c0.839-0.899,1.485-1.991,1.94-3.276
	C193.754,325.647,193.982,324.188,193.982,322.555z M229.695,308.918v27.273h-2.107c-0.325,0-0.595-0.057-0.809-0.172
	c-0.215-0.113-0.433-0.297-0.654-0.551l-15.818-19.922c0.026,0.342,0.048,0.678,0.068,1.007s0.029,0.639,0.029,0.931v18.708h-3.647
	v-27.273h2.146c0.364,0,0.637,0.041,0.819,0.123c0.182,0.083,0.383,0.27,0.604,0.561l15.857,19.941
	c-0.039-0.367-0.068-0.725-0.087-1.073c-0.02-0.348-0.029-0.674-0.029-0.978v-18.574H229.695z M263.028,336.191h-3.199
	c-0.364,0-0.663-0.09-0.897-0.266c-0.234-0.178-0.403-0.406-0.507-0.684l-2.477-6.325h-12.347l-2.477,6.325
	c-0.091,0.24-0.26,0.459-0.507,0.654c-0.247,0.197-0.546,0.295-0.897,0.295h-3.199l11.157-27.273h4.193L263.028,336.191z
	 M254.817,326.03l-4.154-10.579c-0.299-0.722-0.599-1.633-0.897-2.735c-0.143,0.544-0.29,1.051-0.439,1.519
	c-0.149,0.469-0.296,0.887-0.439,1.253l-4.135,10.541H254.817z M285.868,332.792v3.4h-16.033v-27.273h4.155v23.873H285.868z
	 M324.799,330.341c0.234,0,0.436,0.089,0.604,0.266l1.639,1.748c-1.145,1.316-2.539,2.336-4.184,3.057
	c-1.645,0.723-3.625,1.082-5.939,1.082c-2.028,0-3.865-0.342-5.51-1.025s-3.049-1.639-4.213-2.868
	c-1.164-1.228-2.064-2.697-2.702-4.406c-0.637-1.709-0.956-3.589-0.956-5.641s0.334-3.932,1.004-5.641
	c0.67-1.709,1.609-3.178,2.818-4.406c1.209-1.228,2.656-2.184,4.34-2.868c1.684-0.684,3.547-1.026,5.588-1.026
	c1.989,0,3.758,0.317,5.305,0.95c1.547,0.633,2.893,1.475,4.038,2.526l-1.365,1.88c-0.091,0.139-0.205,0.253-0.341,0.342
	c-0.137,0.089-0.315,0.133-0.537,0.133c-0.247,0-0.536-0.12-0.868-0.361c-0.332-0.24-0.767-0.509-1.307-0.807
	c-0.54-0.297-1.206-0.566-1.999-0.807c-0.793-0.24-1.782-0.361-2.965-0.361c-1.392,0-2.666,0.237-3.823,0.712
	c-1.158,0.475-2.155,1.158-2.994,2.051s-1.489,1.988-1.951,3.286c-0.461,1.298-0.692,2.764-0.692,4.397
	c0,1.659,0.241,3.134,0.722,4.425c0.481,1.292,1.144,2.387,1.99,3.286c0.845,0.899,1.84,1.583,2.984,2.052
	c1.144,0.468,2.38,0.702,3.706,0.702c0.806,0,1.531-0.047,2.175-0.143c0.644-0.095,1.235-0.237,1.775-0.427
	c0.54-0.19,1.05-0.434,1.531-0.731c0.481-0.297,0.956-0.655,1.424-1.073c0.104-0.088,0.214-0.161,0.332-0.218
	S324.668,330.341,324.799,330.341z M351.93,332.906l-0.02,3.286h-17.359v-27.273h17.359v3.285h-13.185v8.642h10.61v3.172h-10.61
	v8.889H351.93z M383.312,308.918v27.273h-2.107c-0.325,0-0.595-0.057-0.809-0.172c-0.215-0.113-0.433-0.297-0.654-0.551
	l-15.818-19.922c0.026,0.342,0.048,0.678,0.068,1.007s0.029,0.639,0.029,0.931v18.708h-3.647v-27.273h2.146
	c0.364,0,0.637,0.041,0.819,0.123c0.182,0.083,0.383,0.27,0.604,0.561l15.857,19.941c-0.039-0.367-0.068-0.725-0.087-1.073
	c-0.02-0.348-0.029-0.674-0.029-0.978v-18.574H383.312z M412.647,312.299h-8.894v23.893h-4.135v-23.893h-8.933v-3.38h21.962V312.299
	z M437.379,332.906l-0.02,3.286H420v-27.273h17.359v3.285h-13.185v8.642h10.61v3.172h-10.61v8.889H437.379z M466.831,336.191h-3.706
	c-0.741,0-1.281-0.285-1.619-0.855l-6.924-9.458c-0.221-0.316-0.462-0.542-0.722-0.674c-0.26-0.133-0.65-0.2-1.17-0.2h-2.711v11.187
	h-4.155v-27.273h8.075c1.807,0,3.365,0.18,4.671,0.541s2.386,0.874,3.238,1.539c0.852,0.665,1.482,1.465,1.892,2.402
	c0.409,0.937,0.614,1.988,0.614,3.153c0,0.949-0.15,1.842-0.449,2.678c-0.299,0.835-0.738,1.586-1.316,2.25
	c-0.579,0.665-1.284,1.238-2.116,1.719c-0.833,0.481-1.775,0.849-2.828,1.102c0.52,0.304,0.968,0.729,1.346,1.272L466.831,336.191z
	 M453.763,322.061c1.066,0,2.006-0.126,2.818-0.379s1.492-0.611,2.039-1.073c0.546-0.462,0.956-1.013,1.229-1.652
	c0.273-0.639,0.41-1.345,0.41-2.118c0-1.57-0.53-2.754-1.589-3.551c-1.06-0.798-2.65-1.197-4.769-1.197h-3.92v9.971H453.763z
	 M491.075,312.204v9.135h11.234v3.286h-11.234v11.567H486.9v-27.273h17.359v3.285H491.075z M538.121,322.555
	c0,2.039-0.335,3.909-1.004,5.612c-0.67,1.703-1.616,3.172-2.838,4.406s-2.685,2.193-4.388,2.878
	c-1.704,0.684-3.596,1.025-5.676,1.025c-2.067,0-3.956-0.342-5.666-1.025c-1.71-0.686-3.173-1.644-4.389-2.878
	s-2.162-2.703-2.838-4.406c-0.676-1.703-1.014-3.573-1.014-5.612c0-2.026,0.338-3.894,1.014-5.603
	c0.676-1.709,1.622-3.181,2.838-4.416s2.679-2.196,4.389-2.887c1.71-0.69,3.599-1.035,5.666-1.035c2.081,0,3.973,0.345,5.676,1.035
	c1.703,0.69,3.166,1.652,4.388,2.887s2.168,2.707,2.838,4.416C537.786,318.661,538.121,320.529,538.121,322.555z M533.869,322.555
	c0-1.621-0.228-3.077-0.683-4.368s-1.102-2.387-1.94-3.286s-1.853-1.589-3.043-2.07c-1.189-0.481-2.52-0.722-3.989-0.722
	s-2.799,0.241-3.988,0.722c-1.19,0.481-2.208,1.171-3.053,2.07s-1.496,1.994-1.951,3.286s-0.683,2.748-0.683,4.368
	c0,1.633,0.228,3.093,0.683,4.377c0.455,1.285,1.105,2.377,1.951,3.276c0.845,0.898,1.863,1.586,3.053,2.061
	c1.189,0.475,2.519,0.712,3.988,0.712s2.799-0.237,3.989-0.712c1.19-0.475,2.204-1.162,3.043-2.061
	c0.839-0.899,1.485-1.991,1.94-3.276C533.641,325.647,533.869,324.188,533.869,322.555z M567.65,336.191h-3.706
	c-0.741,0-1.281-0.285-1.619-0.855l-6.924-9.458c-0.221-0.316-0.462-0.542-0.722-0.674c-0.26-0.133-0.65-0.2-1.17-0.2h-2.711v11.187
	h-4.155v-27.273h8.075c1.807,0,3.365,0.18,4.671,0.541s2.386,0.874,3.238,1.539c0.852,0.665,1.482,1.465,1.892,2.402
	c0.409,0.937,0.614,1.988,0.614,3.153c0,0.949-0.15,1.842-0.449,2.678c-0.299,0.835-0.738,1.586-1.316,2.25
	c-0.579,0.665-1.284,1.238-2.116,1.719c-0.833,0.481-1.775,0.849-2.828,1.102c0.52,0.304,0.968,0.729,1.346,1.272L567.65,336.191z
	 M554.582,322.061c1.066,0,2.006-0.126,2.818-0.379s1.492-0.611,2.039-1.073c0.546-0.462,0.956-1.013,1.229-1.652
	c0.273-0.639,0.41-1.345,0.41-2.118c0-1.57-0.53-2.754-1.589-3.551c-1.06-0.798-2.65-1.197-4.769-1.197h-3.92v9.971H554.582z
	 M603.753,332.792v3.4H587.72v-27.273h4.155v23.873H603.753z M615.3,336.191h-4.174v-27.273h4.174V336.191z M629.694,312.204v9.135
	h11.234v3.286h-11.234v11.567h-4.174v-27.273h17.359v3.285H629.694z M668.274,332.906l-0.02,3.286h-17.359v-27.273h17.359v3.285
	h-13.185v8.642h10.61v3.172h-10.61v8.889H668.274z M711.672,336.191h-3.199c-0.363,0-0.662-0.09-0.896-0.266
	c-0.234-0.178-0.402-0.406-0.508-0.684l-2.477-6.325h-12.346l-2.477,6.325c-0.092,0.24-0.262,0.459-0.508,0.654
	c-0.248,0.197-0.547,0.295-0.898,0.295h-3.197l11.156-27.273h4.193L711.672,336.191z M703.461,326.03l-4.154-10.579
	c-0.299-0.722-0.598-1.633-0.896-2.735c-0.145,0.544-0.291,1.051-0.439,1.519c-0.15,0.469-0.297,0.887-0.439,1.253l-4.135,10.541
	H703.461z M741.416,308.918v27.273h-2.105c-0.326,0-0.596-0.057-0.811-0.172c-0.213-0.113-0.432-0.297-0.652-0.551l-15.818-19.922
	c0.025,0.342,0.049,0.678,0.068,1.007s0.029,0.639,0.029,0.931v18.708h-3.648v-27.273h2.146c0.363,0,0.637,0.041,0.818,0.123
	c0.182,0.083,0.385,0.27,0.605,0.561l15.857,19.941c-0.039-0.367-0.068-0.725-0.088-1.073s-0.029-0.674-0.029-0.978v-18.574H741.416
	z M776.096,322.555c0,2.039-0.336,3.893-1.004,5.564c-0.67,1.671-1.617,3.105-2.838,4.302c-1.223,1.196-2.686,2.124-4.389,2.782
	c-1.705,0.658-3.596,0.988-5.676,0.988h-10.533v-27.273h10.533c2.08,0,3.971,0.329,5.676,0.987c1.703,0.659,3.166,1.586,4.389,2.782
	c1.221,1.197,2.168,2.634,2.838,4.312C775.76,318.677,776.096,320.529,776.096,322.555z M771.844,322.555
	c0-1.621-0.229-3.074-0.684-4.359c-0.455-1.285-1.102-2.374-1.939-3.267c-0.84-0.893-1.854-1.573-3.043-2.042
	s-2.52-0.703-3.988-0.703h-6.359v20.739h6.359c1.469,0,2.799-0.234,3.988-0.703c1.189-0.468,2.203-1.148,3.043-2.042
	c0.838-0.893,1.484-1.978,1.939-3.257S771.844,324.188,771.844,322.555z M813.838,332.792v3.4h-16.033v-27.273h4.154v23.873H813.838
	z M825.383,336.191h-4.174v-27.273h4.174V336.191z M844.732,308.918c1.756,0,3.26,0.165,4.516,0.494
	c1.254,0.329,2.285,0.804,3.092,1.424c0.805,0.621,1.4,1.371,1.783,2.25c0.385,0.88,0.576,1.877,0.576,2.991
	c0,0.659-0.104,1.292-0.312,1.899c-0.207,0.608-0.525,1.174-0.955,1.7s-0.969,0.997-1.619,1.415
	c-0.65,0.417-1.418,0.766-2.301,1.044c4.068,0.785,6.104,2.855,6.104,6.21c0,1.165-0.221,2.226-0.662,3.182
	c-0.443,0.956-1.086,1.782-1.932,2.477c-0.846,0.697-1.885,1.236-3.121,1.615c-1.234,0.381-2.639,0.57-4.213,0.57h-10.084v-27.273
	H844.732z M839.758,312.09v8.926h4.779c2.041,0,3.561-0.402,4.555-1.206c0.994-0.804,1.492-1.89,1.492-3.257
	c0-1.558-0.475-2.69-1.424-3.4c-0.949-0.709-2.426-1.063-4.428-1.063H839.758z M845.609,332.981c1.055,0,1.955-0.12,2.703-0.36
	c0.746-0.24,1.357-0.57,1.832-0.988c0.475-0.417,0.822-0.914,1.043-1.49c0.223-0.576,0.332-1.206,0.332-1.89
	c0-1.355-0.48-2.422-1.443-3.2c-0.961-0.779-2.451-1.168-4.467-1.168h-5.852v9.097H845.609z M881.635,332.906l-0.02,3.286h-17.359
	v-27.273h17.359v3.285H868.43v8.642h10.611v3.172H868.43v8.889H881.635z M911.086,336.191h-3.707c-0.74,0-1.281-0.285-1.619-0.855
	l-6.924-9.458c-0.221-0.316-0.461-0.542-0.721-0.674c-0.262-0.133-0.65-0.2-1.17-0.2h-2.713v11.187h-4.154v-27.273h8.076
	c1.807,0,3.363,0.18,4.67,0.541c1.309,0.361,2.387,0.874,3.238,1.539c0.852,0.665,1.482,1.465,1.893,2.402s0.613,1.988,0.613,3.153
	c0,0.949-0.148,1.842-0.447,2.678s-0.738,1.586-1.316,2.25c-0.58,0.665-1.285,1.238-2.117,1.719
	c-0.832,0.481-1.775,0.849-2.828,1.102c0.52,0.304,0.969,0.729,1.346,1.272L911.086,336.191z M898.018,322.061
	c1.066,0,2.006-0.126,2.818-0.379s1.492-0.611,2.037-1.073c0.547-0.462,0.957-1.013,1.23-1.652c0.271-0.639,0.408-1.345,0.408-2.118
	c0-1.57-0.529-2.754-1.59-3.551c-1.059-0.798-2.648-1.197-4.768-1.197h-3.922v9.971H898.018z M936.207,312.299h-8.895v23.893h-4.135
	v-23.893h-8.934v-3.38h21.963V312.299z M954.463,325.403v10.788h-4.135v-10.788l-10.26-16.485h3.646
	c0.365,0,0.656,0.085,0.879,0.256c0.221,0.171,0.402,0.396,0.545,0.674l6.086,10.199c0.246,0.469,0.471,0.912,0.674,1.33
	c0.201,0.418,0.379,0.83,0.535,1.234c0.143-0.405,0.309-0.816,0.498-1.234c0.188-0.418,0.406-0.861,0.652-1.33l6.066-10.199
	c0.131-0.228,0.309-0.439,0.537-0.636c0.227-0.196,0.516-0.294,0.867-0.294h3.668L954.463,325.403z"/>
</svg>
