<svg xmlns="http://www.w3.org/2000/svg" xmlns:xlink="http://www.w3.org/1999/xlink" width="1077" height="406" viewBox="0 0 1077 406"><path fill="#FFF" d="M460.106 197.523l.064 53.416-143.286 39.792L167.17 250.91v-53.39s152.47-25.673 292.937 0z"/><path fill="none" stroke="#0CA0DB" stroke-width="6" stroke-miterlimit="10" d="M460.106 197.523l.064 53.416-143.286 39.792L167.17 250.91v-53.39s152.47-25.673 292.937 0z"/><path d="M316.335 224.903l5.758 11.67 12.88 1.87-9.318 9.083 2.2 12.828-11.52-6.06-11.518 6.06 2.2-12.828-9.32-9.083 12.876-1.87M210.2 220.943l1.516 3.072 3.392.493-2.453 2.392.58 3.377-3.034-1.594-3.03 1.594.58-3.377-2.454-2.392 3.39-.493m149.426 6.002l-3.707 7.516-8.294 1.204 6 5.853-1.42 8.26 7.42-3.9 7.424 3.9-1.42-8.26 6.003-5.853-8.293-1.204m29.496-11.923l-2.376 4.815-5.314.772 3.84 3.746-.906 5.292 4.753-2.5 4.753 2.5-.907-5.292 3.844-3.746-5.312-.772m-121.008-1.605l3.708 7.514 8.294 1.205-6.005 5.85 1.418 8.26-7.42-3.9-7.42 3.9 1.42-8.26-6.003-5.85 8.294-1.21m-32.504-10.72l2.373 4.815 5.313.77-3.843 3.748.907 5.292-4.75-2.498-4.754 2.498.907-5.292-3.845-3.747 5.312-.77m183.707-11.296l1.514 3.072 3.397.492-2.454 2.392.58 3.376-3.03-1.593-3.037 1.59.58-3.377-2.453-2.392 3.388-.49" fill="#CC4E45"/><path fill="#0CA0DB" d="M167.17 197.523v-93.805l149.684-48.292 143.144 48.292.11 93.805c-.002 0-143.28-21.107-292.937 0z"/><path fill="none" stroke="#0CA0DB" stroke-width="6" stroke-miterlimit="10" d="M167.17 197.523v-93.805l149.684-48.292 143.144 48.292.11 93.805c-.002 0-143.28-21.107-292.937 0z"/><defs><path id="a" d="M166.81 197.523v-93.805l149.683-48.292 143.144 48.292.11 93.805c-.002 0-143.28-21.107-292.937 0z"/></defs><clipPath id="b"><use xlink:href="#a" overflow="visible"/></clipPath><g clip-path="url(#b)"><g fill="none" stroke="#FFF" stroke-width=".909" stroke-miterlimit="10"><path d="M424.825 200.3l-2.337-83.92h-1.124l2.12 83.92zm-1.342 0l-2.12-83.92h-2.417l1.884 83.92zm-2.653 0l-1.884-83.92h-2.81l1.245 83.92zm-3.45 0l-1.245-83.92h-3.46l.743 83.92zm-19.106 0l2.118-83.92h-1.125l-2.338 83.92z"/><path d="M400.924 200.3l1.884-83.92h-2.416l-2.118 83.92z"/><path d="M404.375 200.3l1.244-83.92h-2.815l-1.884 83.92zm3.963 0l.742-83.92h-3.46l-1.245 83.92z"/><path d="M413.418 200.3l-.743-83.92h-3.595l-.742 83.92z"/></g><path fill="#FFF" d="M429.602 103.654h-37.155v6.288h1.43s-.507 0-.756.232c-.33.312-.28.693-.214.945.086.33.25.5.25.5l2.94 2.994 1.855 1.53h26.15l1.857-1.53 2.94-2.995s.165-.168.25-.503c.066-.253.114-.634-.218-.946-.246-.23-.757-.23-.757-.23h1.43v-6.29z"/></g><g clip-path="url(#b)"><g fill="none" stroke="#FFF" stroke-miterlimit="10"><path d="M380.47 198.6l-2.57-92.305h-1.238l2.33 92.306z"/><path d="M378.993 198.6l-2.33-92.305h-2.66l2.072 92.306z"/><path d="M376.075 198.6l-2.072-92.305h-3.092l1.375 92.306z"/><path d="M372.282 198.6l-1.37-92.305h-3.807l.817 92.306zm-21.016 0l2.33-92.305h-1.24l-2.57 92.306z"/><path d="M354.18 198.6l2.072-92.305h-2.657l-2.33 92.306z"/><path d="M357.976 198.6l1.368-92.305h-3.092L354.18 198.6zm4.358 0l.817-92.305h-3.803L357.98 198.6zm5.588 0l-.817-92.305h-3.954l-.813 92.306z"/></g><path fill="#FFF" d="M385.723 92.3h-40.867v6.915h1.574s-.56 0-.832.255c-.364.343-.31.762-.24 1.04.096.37.276.553.276.553l3.234 3.294 2.04 1.684h28.762l2.04-1.68 3.233-3.294s.182-.185.277-.553c.07-.276.125-.695-.24-1.04-.27-.254-.833-.254-.833-.254h1.574V92.3z"/></g><g clip-path="url(#b)"><g fill="none" stroke="#FFF" stroke-miterlimit="10"><path d="M331.827 192.29l-2.57-92.306h-1.237l2.33 92.306z"/><path d="M330.35 192.29l-2.33-92.306h-2.66l2.072 92.306z"/><path d="M327.432 192.29l-2.072-92.306h-3.092l1.37 92.306z"/><path d="M323.64 192.29l-1.372-92.306h-3.806l.818 92.306zm-21.017 0l2.33-92.306h-1.238l-2.57 92.306z"/><path d="M305.538 192.29l2.072-92.306h-2.658l-2.33 92.306z"/><path d="M309.333 192.29l1.37-92.306h-3.093l-2.072 92.306z"/><path d="M313.692 192.29l.817-92.306h-3.81l-1.37 92.306z"/><path d="M319.28 192.29l-.818-92.306h-3.953l-.82 92.306z"/></g><path fill="#FFF" d="M337.08 85.988h-40.866v6.916h1.574s-.56 0-.832.255c-.364.34-.31.76-.24 1.04.096.365.276.55.276.55l3.234 3.293 2.04 1.684h28.762l2.04-1.685 3.233-3.294s.186-.185.28-.553c.07-.278.126-.697-.24-1.04-.27-.256-.832-.256-.832-.256h1.574v-6.916z"/></g><g clip-path="url(#b)"><g fill="none" stroke="#FFF" stroke-miterlimit="10"><path d="M281.063 197.523l-2.57-92.305h-1.237l2.33 92.305z"/><path d="M279.587 197.523l-2.33-92.305h-2.66l2.072 92.305z"/><path d="M276.67 197.523l-2.073-92.305h-3.092l1.37 92.305z"/><path d="M272.876 197.523l-1.37-92.305H267.7l.816 92.305zm-21.016 0l2.33-92.305h-1.238l-2.572 92.305z"/><path d="M254.774 197.523l2.073-92.305h-2.658l-2.33 92.305zm3.796 0l1.368-92.305h-3.09l-2.074 92.305z"/><path d="M262.93 197.523l.816-92.305h-3.808l-1.368 92.305z"/><path d="M268.517 197.523l-.818-92.305h-3.957l-.817 92.305z"/></g><path fill="#FFF" d="M286.317 91.222H245.45v6.916h1.574s-.56 0-.832.255c-.364.343-.31.762-.24 1.04.096.37.276.553.276.553l3.234 3.294 2.04 1.684h28.76l2.04-1.684 3.234-3.294s.182-.185.277-.553c.07-.277.125-.696-.24-1.04-.27-.255-.833-.255-.833-.255h1.575v-6.916z"/></g><g clip-path="url(#b)"><g fill="none" stroke="#FFF" stroke-width=".909" stroke-miterlimit="10"><path d="M235.71 200.3l-2.338-83.92h-1.124l2.12 83.92zm-1.343 0l-2.12-83.92h-2.417l1.884 83.92z"/><path d="M231.714 200.3l-1.884-83.92h-2.81l1.245 83.92zm-3.45 0l-1.245-83.92h-3.46l.74 83.92zm-19.106 0l2.117-83.92h-1.125l-2.337 83.92z"/><path d="M211.808 200.3l1.884-83.92h-2.417l-2.117 83.92zm3.45 0l1.245-83.92h-2.81l-1.885 83.92zm3.964 0l.742-83.92h-3.46l-1.246 83.92z"/><path d="M224.302 200.3l-.743-83.92h-3.6l-.74 83.92z"/></g><path fill="#FFF" d="M240.486 103.654h-37.154v6.288h1.43s-.507 0-.756.232c-.33.312-.283.693-.217.945.082.33.25.5.25.5l2.94 2.994 1.85 1.53h26.15l1.856-1.53 2.94-2.995s.165-.168.25-.503c.066-.253.114-.634-.218-.946-.246-.23-.757-.23-.757-.23h1.43v-6.29z"/></g><path d="M642.333 117.73v142.624h-17.23c-2.544 0-4.683-.407-6.41-1.224-1.73-.815-3.444-2.234-5.14-4.258l-67.25-85.066c.26 2.545.44 5.01.54 7.39.097 2.384.146 4.62.146 6.707v76.452h-29.175V117.73h17.424c1.435 0 2.643.065 3.622.195.98.132 1.86.376 2.643.734.783.355 1.533.862 2.25 1.513.718.653 1.534 1.534 2.448 2.643l67.837 85.652c-.326-2.74-.553-5.4-.684-7.98-.13-2.576-.196-5.007-.196-7.292v-75.47h29.172zm123.73 105.72c.784 0 1.567.146 2.35.44.784.293 1.53.8 2.25 1.517l13.118 13.802c-5.74 7.5-12.934 13.162-21.58 16.98-8.65 3.817-18.877 5.727-30.69 5.727-10.833 0-20.542-1.844-29.122-5.53-8.582-3.69-15.857-8.778-21.828-15.273-5.974-6.493-10.56-14.194-13.755-23.102-3.198-8.908-4.796-18.583-4.796-29.024 0-10.636 1.726-20.41 5.186-29.318 3.458-8.908 8.32-16.592 14.585-23.053 6.27-6.46 13.77-11.485 22.517-15.075 8.746-3.588 18.37-5.384 28.88-5.384 5.35 0 10.39.475 15.122 1.42 4.73.947 9.15 2.25 13.263 3.916s7.897 3.67 11.356 6.02c3.46 2.35 6.524 4.895 9.2 7.635l-11.16 14.98c-.72.913-1.568 1.745-2.547 2.495-.98.75-2.35 1.125-4.11 1.125-1.177 0-2.286-.26-3.33-.78s-2.153-1.16-3.327-1.91c-1.176-.75-2.465-1.565-3.867-2.446-1.405-.88-3.07-1.696-4.993-2.447-1.926-.75-4.178-1.386-6.756-1.91-2.577-.52-5.595-.782-9.054-.782-5.48 0-10.49 1.013-15.025 3.035-4.536 2.022-8.45 4.976-11.745 8.86-3.297 3.88-5.842 8.646-7.637 14.29-1.798 5.646-2.694 12.09-2.694 19.333 0 7.31.994 13.802 2.986 19.48 1.99 5.678 4.7 10.46 8.125 14.34 3.425 3.884 7.42 6.838 11.99 8.86 4.567 2.023 9.462 3.035 14.683 3.035 3.003 0 5.743-.147 8.224-.44 2.48-.294 4.797-.783 6.95-1.468 2.153-.687 4.177-1.6 6.07-2.742 1.892-1.14 3.817-2.594 5.774-4.356.783-.65 1.63-1.19 2.545-1.615.915-.425 1.86-.638 2.84-.638zm118.15 10.473v26.43H798.27V117.73h33.086v116.194h52.86zm102.783 0v26.43H901.05V117.73h33.086v116.194h52.86z" fill="#fff"/><path fill="#0CA0DB" stroke="#FFF" stroke-width="2" stroke-miterlimit="10" d="M577.47 214.79c-212.326-46.297-299.66-44.388-528.385-.22v2.39c221.4-30.647 314.515-31.29 528.386-.525v-1.645z"/><path d="M93.905 308.918v27.273h-2.107c-.325 0-.595-.053-.81-.17-.214-.11-.432-.295-.653-.55l-15.818-19.92c.026.342.048.678.068 1.007s.03.64.03.93v18.71h-3.648V308.92h2.146c.364 0 .637.04.82.122.18.083.382.27.603.56l15.857 19.942c-.04-.367-.068-.725-.087-1.073-.02-.344-.03-.67-.03-.974V308.92h3.63zm33.333 27.272h-3.2c-.363 0-.662-.09-.896-.265-.234-.178-.403-.406-.507-.684l-2.477-6.32H107.81l-2.476 6.324c-.09.24-.26.46-.507.655-.247.196-.546.294-.897.294h-3.2l11.158-27.273h4.193l11.16 27.274zm-8.212-10.16l-4.154-10.58c-.3-.72-.6-1.632-.897-2.734-.143.544-.29 1.05-.44 1.52-.148.468-.295.886-.438 1.252l-4.135 10.54h10.064zm31.364-13.73h-8.894v23.892h-4.135V312.3h-8.93v-3.38h21.96v3.38zm11.527 23.89h-4.174v-27.27h4.174v27.273zm36.317-13.635c0 2.04-.335 3.91-1.004 5.612-.67 1.703-1.616 3.172-2.838 4.406s-2.685 2.193-4.388 2.878c-1.704.688-3.596 1.03-5.676 1.03-2.067 0-3.956-.343-5.666-1.026-1.71-.685-3.173-1.643-4.39-2.877s-2.16-2.703-2.837-4.406c-.676-1.703-1.014-3.573-1.014-5.612 0-2.026.34-3.894 1.018-5.603.676-1.71 1.622-3.18 2.838-4.416s2.68-2.197 4.39-2.888c1.71-.69 3.598-1.034 5.665-1.034 2.08 0 3.973.345 5.676 1.035 1.703.69 3.166 1.65 4.388 2.887s2.168 2.707 2.838 4.416c.67 1.71 1.006 3.577 1.006 5.603zm-4.252 0c0-1.62-.228-3.077-.683-4.368s-1.106-2.387-1.94-3.286-1.857-1.585-3.047-2.07c-1.19-.48-2.52-.72-3.99-.72s-2.798.24-3.987.72c-1.19.485-2.21 1.175-3.054 2.07s-1.496 1.998-1.95 3.29-.684 2.748-.684 4.368c0 1.633.227 3.093.682 4.377.455 1.285 1.105 2.377 1.95 3.276.846.898 1.864 1.586 3.054 2.06 1.188.476 2.518.713 3.987.713s2.8-.236 3.99-.71c1.19-.476 2.204-1.163 3.043-2.062.838-.9 1.484-1.99 1.94-3.275.454-1.285.682-2.744.682-4.377zm35.713-13.637v27.273h-2.107c-.325 0-.595-.053-.81-.17-.214-.11-.432-.295-.653-.55l-15.818-19.92c.026.34.048.677.068 1.006s.03.64.03.93v18.71h-3.648V308.92h2.146c.364 0 .637.04.82.122.18.083.382.27.603.56l15.857 19.942c-.04-.367-.068-.725-.087-1.073-.02-.344-.03-.67-.03-.974V308.92h3.63zm33.333 27.272h-3.2c-.363 0-.662-.09-.896-.265-.234-.178-.403-.406-.507-.684l-2.477-6.32H243.6l-2.476 6.324c-.09.24-.26.46-.507.655-.247.196-.546.294-.897.294h-3.2l11.158-27.273h4.193l11.16 27.274zm-8.21-10.16l-4.155-10.58c-.3-.72-.6-1.632-.897-2.734-.143.544-.29 1.05-.44 1.52-.148.468-.295.886-.438 1.252l-4.135 10.54h10.064zm31.05 6.762v3.4h-16.033V308.92h4.155v23.872h11.878zm38.932-2.452c.233 0 .435.09.603.267l1.64 1.748c-1.146 1.316-2.54 2.336-4.185 3.057-1.645.723-3.625 1.082-5.94 1.082-2.027 0-3.864-.342-5.51-1.025s-3.048-1.64-4.212-2.87c-1.164-1.23-2.064-2.7-2.702-4.408-.637-1.71-.956-3.59-.956-5.64s.334-3.933 1.004-5.642c.67-1.71 1.61-3.177 2.818-4.405 1.21-1.228 2.656-2.184 4.34-2.868 1.684-.685 3.547-1.027 5.588-1.027 1.99 0 3.758.318 5.305.95 1.547.634 2.893 1.476 4.038 2.527l-1.36 1.88c-.09.138-.206.252-.34.34-.14.09-.317.134-.54.134-.247 0-.536-.12-.87-.36-.33-.24-.765-.51-1.305-.805-.54-.297-1.206-.566-2-.807-.792-.24-1.78-.362-2.964-.362-1.392 0-2.666.237-3.823.712-1.158.475-2.155 1.158-2.994 2.05s-1.49 1.99-1.95 3.287c-.462 1.298-.693 2.764-.693 4.397 0 1.66.24 3.135.72 4.426.48 1.29 1.143 2.386 1.99 3.285.844.9 1.84 1.584 2.983 2.053 1.144.468 2.38.702 3.706.702.805 0 1.53-.048 2.174-.144.644-.094 1.235-.236 1.775-.426.54-.19 1.05-.435 1.532-.732.48-.296.956-.654 1.424-1.072.104-.088.214-.16.332-.218s.24-.086.37-.086zm27.13 2.566l-.02 3.286h-17.36V308.92h17.36v3.284h-13.185v8.642h10.61v3.172h-10.61v8.89h13.205zm31.382-23.988v27.273h-2.107c-.325 0-.595-.053-.81-.17-.214-.11-.432-.295-.653-.55l-15.818-19.92c.026.34.048.677.068 1.006s.03.64.03.93v18.71h-3.648V308.92h2.146c.364 0 .637.04.82.122.18.083.382.27.603.56l15.857 19.942c-.04-.367-.068-.725-.087-1.073-.02-.344-.03-.67-.03-.974V308.92h3.63zm29.335 3.382h-8.894v23.892h-4.135V312.3h-8.933v-3.38h21.962v3.38zm24.733 20.606l-.02 3.286H420V308.92h17.36v3.284h-13.186v8.642h10.61v3.172h-10.61v8.89h13.205zm29.45 3.284h-3.705c-.74 0-1.28-.284-1.62-.854l-6.923-9.458c-.22-.316-.462-.542-.722-.674-.26-.133-.65-.2-1.17-.2h-2.71v11.187h-4.156v-27.27h8.075c1.803 0 3.36.18 4.67.54s2.383.877 3.235 1.54c.852.667 1.482 1.467 1.892 2.404.41.937.613 1.988.613 3.153 0 .95-.15 1.842-.45 2.678-.297.836-.736 1.587-1.314 2.25-.58.666-1.285 1.24-2.117 1.72-.834.48-1.776.85-2.83 1.102.52.304.97.73 1.347 1.272l7.88 10.616zm-13.067-14.13c1.066 0 2.006-.125 2.818-.378s1.496-.61 2.04-1.073c.55-.466.96-1.017 1.23-1.656.275-.64.41-1.345.41-2.118 0-1.57-.53-2.755-1.59-3.552-1.06-.798-2.65-1.197-4.77-1.197h-3.92v9.97h3.786zm37.312-9.856v9.135h11.234v3.282H491.07v11.567H486.9v-27.27h17.36v3.283h-13.185zm47.045 10.35c0 2.04-.334 3.91-1.003 5.613-.67 1.703-1.616 3.172-2.838 4.406s-2.69 2.193-4.39 2.878c-1.706.688-3.598 1.03-5.678 1.03-2.067 0-3.956-.343-5.666-1.026-1.71-.685-3.174-1.643-4.39-2.877s-2.162-2.703-2.838-4.406c-.677-1.703-1.015-3.573-1.015-5.612 0-2.026.338-3.894 1.014-5.603.675-1.71 1.62-3.18 2.837-4.416s2.68-2.197 4.39-2.888c1.71-.69 3.598-1.034 5.665-1.034 2.08 0 3.972.345 5.675 1.035 1.703.69 3.166 1.65 4.39 2.887s2.166 2.707 2.836 4.416c.67 1.71 1.005 3.577 1.005 5.603zm-4.25 0c0-1.62-.23-3.076-.684-4.367s-1.102-2.387-1.94-3.286-1.853-1.585-3.043-2.07c-1.19-.48-2.52-.72-3.99-.72s-2.798.24-3.987.72c-1.19.485-2.208 1.175-3.053 2.07s-1.496 1.998-1.95 3.29-.684 2.748-.684 4.368c0 1.633.224 3.093.68 4.377.454 1.285 1.104 2.377 1.95 3.276.845.898 1.863 1.586 3.053 2.06 1.19.476 2.52.713 3.988.713s2.8-.236 3.99-.71c1.19-.476 2.204-1.163 3.043-2.062.84-.9 1.485-1.99 1.94-3.275.455-1.285.683-2.744.683-4.377zm33.78 13.636h-3.706c-.74 0-1.28-.284-1.62-.854l-6.923-9.458c-.22-.316-.46-.542-.72-.674-.26-.133-.65-.2-1.17-.2h-2.71v11.187h-4.154v-27.27h8.075c1.807 0 3.365.18 4.67.54s2.387.877 3.24 1.54c.85.667 1.48 1.467 1.89 2.404.41.937.615 1.988.615 3.153 0 .95-.15 1.842-.45 2.678-.298.836-.737 1.587-1.315 2.25-.58.666-1.286 1.24-2.118 1.72-.833.48-1.775.85-2.828 1.102.52.304.968.73 1.346 1.272l7.88 10.616zm-13.068-14.13c1.066 0 2.006-.125 2.818-.378s1.492-.61 2.04-1.073c.545-.466.955-1.017 1.228-1.656.273-.64.41-1.345.41-2.118 0-1.57-.53-2.755-1.59-3.552-1.06-.798-2.65-1.197-4.768-1.197h-3.92v9.97h3.782zm49.17 10.732v3.4H587.72V308.92h4.155v23.872h11.878zm11.548 3.398h-4.174v-27.27h4.174v27.273zm14.394-23.986v9.135h11.234v3.282h-11.234v11.567h-4.174v-27.27h17.36v3.283h-13.186zm38.58 20.702l-.02 3.286h-17.36V308.92h17.36v3.284H655.07v8.642h10.61v3.172h-10.61v8.89h13.204zm43.398 3.284h-3.2c-.362 0-.66-.09-.895-.265-.234-.178-.402-.406-.508-.684l-2.48-6.32h-12.347l-2.477 6.324c-.093.24-.263.46-.51.655-.247.196-.546.294-.897.294h-3.197l11.156-27.273h4.192l11.157 27.274zm-8.21-10.16l-4.155-10.58c-.3-.72-.598-1.632-.896-2.734-.14.544-.29 1.05-.435 1.52-.15.468-.297.886-.44 1.252l-4.134 10.54h10.063zm37.954-17.112v27.273h-2.105c-.322 0-.592-.053-.81-.17-.21-.11-.43-.295-.65-.55l-15.82-19.92c.028.34.05.677.07 1.006s.03.64.03.93v18.71h-3.65V308.92h2.148c.363 0 .637.04.818.122.182.083.385.27.605.56l15.857 19.942c-.04-.367-.068-.725-.088-1.073s-.03-.67-.03-.974V308.92h3.63zm34.68 13.637c0 2.04-.336 3.893-1.004 5.564-.67 1.67-1.617 3.1-2.838 4.3-1.223 1.194-2.686 2.122-4.39 2.78-1.704.66-3.595.99-5.675.99h-10.537v-27.27h10.533c2.08 0 3.97.33 5.675.985 1.704.66 3.167 1.586 4.39 2.782 1.22 1.196 2.168 2.633 2.838 4.31.667 1.678 1.003 3.53 1.003 5.556zm-4.252 0c0-1.62-.23-3.074-.684-4.36-.455-1.284-1.102-2.373-1.94-3.266-.84-.897-1.853-1.577-3.042-2.046s-2.52-.703-3.988-.703h-6.36v20.74h6.36c1.47 0 2.8-.234 3.988-.703 1.19-.47 2.203-1.15 3.043-2.043.84-.893 1.488-1.978 1.94-3.257s.687-2.732.687-4.365zm41.994 10.237v3.4h-16.033V308.92h4.154v23.872h11.875zm11.545 3.398h-4.174v-27.27h4.17v27.273zm19.35-27.272c1.755 0 3.26.165 4.515.494 1.254.33 2.285.804 3.092 1.424.805.62 1.4 1.37 1.783 2.25.385.88.576 1.877.576 2.99 0 .66-.108 1.293-.316 1.9-.207.608-.525 1.174-.955 1.7s-.97.997-1.62 1.415c-.65.42-1.417.77-2.3 1.048 4.07.785 6.104 2.855 6.104 6.21 0 1.165-.22 2.226-.662 3.182-.443.955-1.086 1.78-1.932 2.476-.844.697-1.883 1.236-3.12 1.615-1.233.38-2.64.57-4.212.57h-10.084V308.92h9.128zm-4.975 3.172v8.926h4.78c2.04 0 3.56-.402 4.554-1.206.994-.804 1.492-1.89 1.492-3.257 0-1.558-.475-2.69-1.424-3.4-.95-.71-2.426-1.063-4.428-1.063h-4.974zm5.85 20.89c1.056 0 1.956-.12 2.704-.36.746-.24 1.357-.57 1.832-.987.475-.417.822-.914 1.043-1.49.223-.576.332-1.206.332-1.89 0-1.355-.48-2.422-1.447-3.2-.96-.78-2.45-1.168-4.467-1.168h-5.853v9.097h5.852zm36.027-.074l-.02 3.286h-17.36V308.92h17.36v3.284H868.43v8.642h10.61v3.172h-10.61v8.89h13.205zm29.45 3.284h-3.706c-.74 0-1.285-.284-1.62-.854l-6.927-9.458c-.22-.316-.46-.542-.72-.674-.263-.133-.65-.2-1.17-.2h-2.714v11.187h-4.154v-27.27h8.076c1.807 0 3.363.18 4.67.54 1.31.364 2.387.877 3.238 1.54.854.667 1.484 1.467 1.895 2.404s.613 1.988.613 3.153c0 .95-.148 1.842-.447 2.678s-.735 1.587-1.313 2.25c-.58.666-1.285 1.24-2.117 1.72-.833.48-1.776.85-2.83 1.102.52.304.97.73 1.347 1.272l7.88 10.616zm-13.067-14.13c1.066 0 2.006-.125 2.818-.378s1.492-.61 2.037-1.073c.547-.466.957-1.017 1.23-1.656.27-.64.408-1.345.408-2.118 0-1.57-.525-2.755-1.59-3.552-1.055-.798-2.644-1.197-4.764-1.197h-3.922v9.97h3.788zm38.19-9.76h-8.896v23.892h-4.135V312.3h-8.934v-3.38h21.963v3.38zm18.255 13.103v10.788h-4.135v-10.784l-10.26-16.485h3.646c.365 0 .656.085.88.256.22.17.4.396.544.674l6.086 10.2c.246.466.47.91.674 1.33.2.415.38.83.535 1.23.143-.403.31-.814.498-1.232.19-.42.41-.86.656-1.33l6.066-10.2c.13-.228.31-.44.537-.636.226-.196.515-.294.866-.294h3.668l-10.256 16.485z" fill="#fff"/></svg>
