<?xml version="1.0" encoding="utf-8"?>
<!-- Generator: Adobe Illustrator 16.0.5, SVG Export Plug-In . SVG Version: 6.00 Build 0)  -->
<!DOCTYPE svg PUBLIC "-//W3C//DTD SVG 1.1//EN" "http://www.w3.org/Graphics/SVG/1.1/DTD/svg11.dtd">
<svg version="1.1" id="Layer_1" xmlns="http://www.w3.org/2000/svg" xmlns:xlink="http://www.w3.org/1999/xlink" x="0px" y="0px"
	 width="1565.921px" height="406.479px" viewBox="0 0 1565.921 406.479" enable-background="new 0 0 1565.921 406.479"
	 xml:space="preserve">
<path id="News_Group" fill-rule="evenodd" clip-rule="evenodd" d="M583.007,335.435c9.997-16.646,19.678-32.362,28.894-48.348
	c2.772-4.81,5.956-6.994,11.535-6.547c5.442,0.437,10.948,0.096,17.313,0.096c-0.941,1.819-1.483,3.089-2.212,4.24
	c-14.242,22.502-28.546,44.965-42.712,67.515c-1.598,2.544-3.286,3.639-6.357,3.564c-15.979-0.385-12.26,2.044-20.652-11.524
	c-1.917-3.1-3.8-6.222-6.012-9.849c-3.422,5.732-6.689,10.934-9.67,16.295c-1.993,3.584-4.736,4.665-8.812,5.199
	c-8.901,1.168-13.968-2.157-18.579-9.891c-12.183-20.434-25.403-40.248-38.201-60.315c-0.876-1.374-1.67-2.802-2.935-4.935
	c8.165,0,15.717-0.284,23.216,0.216c1.692,0.113,3.594,2.714,4.735,4.576c9.046,14.755,17.929,29.609,26.874,44.426
	c0.933,1.546,1.946,3.043,3.326,5.192c3.433-5.475,6.734-10.373,9.559-15.533c0.617-1.129-0.054-3.433-0.839-4.785
	c-5.679-9.787-11.544-19.466-17.338-29.186c-0.832-1.396-1.599-2.83-2.79-4.95c6.381,0,12.136-0.303,17.822,0.191
	c1.627,0.141,3.475,2.333,4.493,4.023c3.077,5.106,5.796,10.428,9.136,16.547c3.164-5.886,6.076-10.993,8.679-16.253
	c1.678-3.392,4.018-4.978,7.861-4.804c4.635,0.209,9.285,0.049,14.685,0.049c-0.927,1.869-1.477,3.174-2.19,4.382
	c-5.923,10.03-11.795,20.093-17.88,30.024c-1.425,2.325-1.51,3.98,0.067,6.248C577.055,325.656,579.744,330.251,583.007,335.435z
	 M956.199,331.345c11.456-5.319,16.984-14.576,15.692-26.284c-1.409-12.779-8.353-20.65-20.996-23.3
	c-3.708-0.776-7.589-0.981-11.393-1c-19.312-0.097-38.627-0.055-57.94-0.041c-7.481,0.005-8.643,1.149-8.652,8.721
	c-0.027,20.479-0.018,40.958,0.008,61.437c0.002,1.58,0.239,3.159,0.362,4.683c7.268,0,13.991,0,21.238,0c0-6.759,0-13.161,0-19.811
	c6.512,0,12.593,0.702,18.449-0.147c12.042-1.745,21.28,1.854,28.022,12.054c1.354,2.051,3.296,3.759,5.152,5.417
	c1.205,1.077,2.725,2.481,4.143,2.527c7.689,0.248,15.392,0.117,23.089,0.117c0.254-0.426,0.508-0.852,0.761-1.277
	c-7.307-6.913-14.615-13.827-22.252-21.052C953.826,332.468,955.008,331.897,956.199,331.345z M894.484,299.311
	c0.923-0.171,1.847-0.488,2.771-0.49c13.14-0.032,26.289-0.308,39.41,0.172c3.46,0.127,7.787,1.792,9.949,4.283
	c1.786,2.059,2.284,7.109,0.957,9.508c-1.567,2.831-5.644,5.85-8.751,5.981c-14.587,0.619-29.215,0.275-44.337,0.275
	C894.484,312.155,894.484,305.876,894.484,299.311z M392.498,283.402c-0.013,21.833-0.044,43.665,0.002,65.497
	c0.012,5.352,1.77,6.972,7.356,6.978c24.166,0.026,48.331,0.017,72.497-0.006c1.266-0.001,2.531-0.243,3.742-0.368
	c0.129-0.854,0.26-1.339,0.265-1.826c0.029-2.833,0.057-5.666,0.03-8.499c-0.056-6.045-1.317-7.372-7.327-7.387
	c-15.832-0.039-31.665-0.014-47.498-0.015c-2.622,0-5.245,0-8.19,0c0-3.957,0-7.339,0-11.375c16.691,0,33.093,0,49.55,0
	c0-5.744,0-10.831,0-16.485c-16.688,0-33.091,0-49.5,0c0-3.969,0-7.355,0-11.089c2.179,0,3.988,0,5.799,0
	c16.666,0,33.332-0.024,49.998,0.018c3.737,0.01,6.806-0.926,7.079-5.217c0.263-4.109,0.057-8.248,0.057-12.675
	c-28.06,0-55.638,0-83.615,0C392.623,282.11,392.499,282.756,392.498,283.402z M1065.892,349.479
	c12.505-6.656,19.376-17.024,19.318-31.387c-0.059-14.344-6.734-25.119-19.56-31.156c-22.809-10.737-46.09-10.737-68.922-0.083
	c-13.024,6.077-19.797,16.909-19.761,31.519c0.035,14.613,7.088,24.939,19.886,31.507c10.603,5.44,22.021,7.272,33.817,7.237
	C1042.981,357.199,1054.907,355.327,1065.892,349.479z M1046.371,298.055c9.703,3.149,14.746,10.824,14.525,20.893
	c-0.219,9.974-5.329,16.875-15.16,19.859c-9.797,2.973-19.732,2.994-29.517-0.033c-9.953-3.08-15.169-10.288-15.228-20.373
	c-0.059-10.172,4.93-17.362,14.982-20.461c4.863-1.5,10.053-1.94,15.272-2.894C1036.34,296.021,1041.536,296.485,1046.371,298.055z
	 M283.299,291.438c0.001,18.981,0.031,37.963-0.026,56.944c-0.011,3.428,0.423,6.891,4.372,7.24
	c5.691,0.504,11.461,0.129,17.713,0.129c0-15.925,0-31.114,0-47.218c2.52,2.109,4.282,3.555,6.014,5.039
	c13.904,11.918,28.401,23.229,41.484,35.99c8.228,8.024,17.062,5.894,26.478,6.187c0-23.618,0.096-46.583-0.184-69.543
	c-0.021-1.811-2.494-4.958-4.089-5.136c-5.669-0.632-11.451-0.246-17.716-0.246c0,15.852,0,31.039,0,47.038
	c-1.981-1.599-3.267-2.581-4.494-3.632c-15.68-13.429-31.33-26.892-47.058-40.263c-1.588-1.349-3.576-2.925-5.479-3.07
	c-5.425-0.415-10.902-0.146-17.015-0.146C283.299,284.814,283.299,288.126,283.299,291.438z M861.876,284.989
	c-0.094-1.112-1.838-2.728-3.066-2.994c-6.491-1.409-13.018-2.896-19.61-3.551c-16.286-1.618-32.312-0.7-47.173,7.201
	c-12.54,6.668-20.27,16.702-20.471,31.331c-0.207,15.07,6.738,26.483,19.956,33.255c22.805,11.685,46.531,10.765,70.364,3.284
	c1.162-0.364,2.594-2.262,2.619-3.472c0.204-9.658,0.32-19.332-0.104-28.977c-0.082-1.858-2.574-5.084-4.086-5.164
	c-9.201-0.484-18.439-0.242-28.6-0.242c0.713,4.964-0.167,11.013,2.341,13.229c3.168,2.802,9.097,2.48,14.169,3.578
	c0,1.353,0,3.296,0,5.616c-14.292,3.047-28.182,3.49-41.312-3.856c-8.056-4.508-10.962-10.892-9.78-20.058
	c1.158-8.976,6.504-15.026,14.793-16.966c8.457-1.979,17.388-2.724,26.094-2.615c7.861,0.097,15.7,2.075,24.012,3.291
	C862.023,293.572,862.237,289.257,861.876,284.989z M1214.188,335.637c15.147-0.258,30.35,0.184,45.426-0.989
	c15.89-1.236,24.136-11.885,23.761-28.343c-0.325-14.262-10.066-24.144-25.04-25.374c-1.991-0.163-3.991-0.295-5.988-0.3
	c-18.991-0.045-37.982-0.09-56.974-0.064c-6.799,0.01-8.018,1.336-8.022,8.35c-0.016,20.658-0.006,41.315-0.006,61.974
	c0,1.574,0,3.148,0,4.548c7.244,0,13.651,0,20.513,0c0-6.666,0-12.95,0-19.796C1210.28,335.642,1212.234,335.67,1214.188,335.637z
	 M1208.054,299.136c0.889-0.174,1.659-0.456,2.43-0.458c13.12-0.025,26.24-0.035,39.361-0.004c4.991,0.012,9.319,1.558,11.319,6.523
	c2.498,6.205-1.919,13.366-9.025,13.578c-14.574,0.435-29.171,0.13-44.085,0.13C1208.054,312.184,1208.054,305.786,1208.054,299.136
	z M714.898,286.984c0.193-3.185-1.293-4.341-4.104-5.059c-14.403-3.679-29.033-4.616-43.604-2.138
	c-7.04,1.198-14.263,3.591-20.421,7.146c-7.964,4.597-10.245,14.819-6.643,22.904c2.778,6.236,8.006,10.187,14.197,11.727
	c9.629,2.394,19.542,3.666,29.355,5.285c5.564,0.917,11.294,1.1,16.719,2.503c4.406,1.14,4.737,5.278,0.862,7.737
	c-2.053,1.303-4.544,2.458-6.912,2.624c-7.445,0.521-15.037,1.443-22.366,0.542c-10.625-1.308-21.07-4.074-31.961-6.294
	c0,4.071,0.172,8.556-0.06,13.02c-0.163,3.137,1.144,4.514,4.071,5.085c9.297,1.813,18.492,4.466,27.869,5.462
	c12.788,1.357,25.679,1.112,37.803-4.309c9.781-4.373,14.891-12.182,14.501-21.843c-0.355-8.828-5.578-15.302-16.458-18.237
	c-7.976-2.152-16.33-2.953-24.545-4.153c-6.088-0.889-12.276-1.178-18.309-2.321c-1.883-0.356-3.402-2.629-5.088-4.024
	c1.544-1.726,2.781-4.071,4.707-5.022c2.444-1.205,5.423-1.553,8.212-1.794c13.9-1.198,27.584,0.283,42.112,4.086
	C714.837,295.23,714.649,291.094,714.898,286.984z M1165.481,280.729c-5.398,0.085-7.024,1.735-7.052,7.288
	c-0.053,10.498,0.034,20.997-0.045,31.495c-0.049,6.473-2.052,12.366-7.41,16.217c-8.908,6.401-18.798,6.522-28.468,2.207
	c-8.634-3.853-11.326-11.57-11.231-20.587c0.104-9.831,0.006-19.664,0.031-29.496c0.01-3.468-0.777-6.652-4.781-6.954
	c-4.914-0.369-9.875-0.088-14.892-0.088c0,15.501-1.13,30.558,0.317,45.362c1.46,14.94,10.827,25.06,25.342,29.813
	c12.116,3.969,24.309,3.909,36.289-0.361c14.575-5.196,23.303-15.865,24.465-31.106c1.084-14.232,0.231-28.612,0.231-43.803
	C1173.735,280.717,1169.607,280.666,1165.481,280.729z"/>
<path id="World" fill-rule="evenodd" clip-rule="evenodd" fill="#E92330" d="M45.287,45.007c8.818,0,16.928,0,25.038,0
	c8.999,0,18.01,0.283,26.993-0.084c7.909-0.323,13.076,2.898,17.088,9.651c24.151,40.648,48.523,81.165,72.828,121.722
	c1.357,2.266,2.768,4.5,4.562,7.413c1.339-1.94,2.378-3.334,3.3-4.801c7.264-11.562,14.394-23.211,21.831-34.659
	c1.921-2.957,1.875-5.066,0.09-8.054c-16.913-28.295-33.665-56.687-50.458-85.054c-1.007-1.701-1.956-3.436-3.219-5.658
	c1.653-0.192,2.868-0.454,4.083-0.457c12.332-0.028,24.666,0.107,36.996-0.062c6.558-0.09,11.031,2.574,14.055,8.387
	c6.835,13.139,13.873,26.173,20.836,39.246c0.926,1.739,1.891,3.457,3.321,6.067c1.251-2.196,2.13-3.658,2.932-5.161
	c6.974-13.07,14.091-26.066,20.828-39.256c3.35-6.559,8.151-9.486,15.547-9.321c13.14,0.295,26.29,0.083,40.25,0.083
	c-1.134,2.101-1.914,3.671-2.805,5.176c-16.696,28.23-33.319,56.504-50.211,84.617c-2.357,3.925-2.631,6.693-0.013,10.623
	c7.291,10.944,14.083,22.221,21.09,33.354c0.94,1.494,1.981,2.925,3.356,4.942c1.359-2.192,2.32-3.698,3.239-5.23
	c24.565-40.988,49.239-81.913,73.587-123.03c4.405-7.44,9.871-10.814,18.598-10.584c16.787,0.445,33.594,0.13,51.27,0.13
	c-1.253,2.15-2.084,3.691-3.021,5.167c-38.292,60.308-76.616,120.595-114.825,180.955c-1.844,2.913-3.817,3.998-7.198,3.928
	c-9.828-0.203-19.669-0.276-29.494-0.011c-7.484,0.203-12.582-2.866-16.331-9.271c-8.569-14.645-17.423-29.124-26.587-44.379
	c-1.288,1.921-2.308,3.31-3.191,4.78c-7.72,12.843-15.609,25.589-23.041,38.597c-4.059,7.104-9.443,10.633-17.789,10.303
	c-9.817-0.388-19.666,0.062-29.49-0.225c-1.93-0.056-4.606-1.309-5.598-2.864C124.514,170.491,85.451,108.897,46.375,47.312
	C46.112,46.897,45.949,46.421,45.287,45.007z M1246.672,50.587c0,55.468-0.004,110.936,0.004,166.403
	c0.001,11.797,4.916,16.741,16.614,16.743c45.974,0.005,91.947,0.114,137.92-0.088c9.789-0.043,19.675-0.543,29.34-1.999
	c44.98-6.777,80.302-35.86,84.229-84.651c2.716-33.737-9.633-67.489-43.589-86.754c-19.306-10.952-40.404-15.104-62.352-15.158
	c-52.302-0.128-104.605-0.044-156.908-0.046c-1.489,0-2.978,0-5.259,0C1246.672,47.318,1246.672,48.953,1246.672,50.587z
	 M1308.406,188.813c-4.377,0.058-6.093-0.957-6.057-5.777c0.219-29.146,0.19-58.293,0.021-87.439
	c-0.025-4.34,1.168-5.729,5.62-5.703c30.812,0.178,61.627-0.125,92.435,0.253c7.546,0.093,15.35,1.228,22.549,3.453
	c22.78,7.041,34.895,25.855,33.476,50.575c-1.259,21.931-16.296,38.679-39.269,42.749c-8.129,1.44-16.541,1.552-24.835,1.738
	c-12.152,0.274-24.315,0.07-36.475,0.07C1340.049,188.731,1324.225,188.605,1308.406,188.813z M936.668,172.169
	c23.324-10.503,37.307-27.764,39.1-53.926c2.015-29.393-11.661-57.723-43.854-68.264c-11.845-3.879-24.046-5.004-36.439-4.992
	c-51.332,0.049-102.664,0.015-153.997,0.024c-11.2,0.003-16.026,4.862-16.028,16.157c-0.013,55.666-0.009,111.331,0.004,166.997
	c0,1.761,0.157,3.522,0.236,5.188c18.784,0,37.009,0,55.496,0c0-15.228,0.19-30.052-0.114-44.865
	c-0.094-4.581,1.452-5.534,5.688-5.506c25.999,0.17,51.999,0,77.997,0.225c2.459,0.021,5.525,1.381,7.252,3.151
	c12.681,13.004,25.169,26.2,37.552,39.491c5.11,5.485,11.119,8.038,18.606,7.962c16.331-0.165,32.666-0.042,48.999-0.067
	c1.165-0.002,2.329-0.26,4.471-0.515c-19.082-19.096-37.426-37.454-56.254-56.297C929.669,175.128,933.205,173.729,936.668,172.169z
	 M781.487,90.373c1.991-0.109,3.777-0.292,5.564-0.293c32.64-0.018,65.279-0.068,97.918,0.055c4.284,0.017,8.677,0.496,12.825,1.535
	c12.846,3.219,19.908,11.982,19.867,24.014c-0.041,12.301-7.807,22.06-20.243,25.123c-3.042,0.75-6.244,1.185-9.374,1.192
	c-34.139,0.087-68.277,0.062-102.415,0.052c-1.289-0.001-2.577-0.164-4.143-0.271C781.487,124.592,781.487,107.702,781.487,90.373z
	 M542.792,42.106c-23.048,2.075-45.311,7.152-65.989,17.952c-37.67,19.675-55.326,54.712-48.058,96.304
	c5.127,29.332,22.867,49.238,48.694,62.586c22.724,11.743,47.191,16.634,72.521,18.145c28.912,1.725,57.188-1.323,84.468-11.333
	c21.908-8.038,40.905-20.222,53.473-40.582c20.551-33.296,19.736-93.145-32.853-122.667c-28.407-15.947-59.346-20.78-93.046-21.561
	C556.746,41.257,549.75,41.48,542.792,42.106z M603.937,88.693c38.273,14.217,40.687,53.902,29.695,76.627
	c-5.989,12.383-16.187,20.334-28.887,24.613c-27.346,9.215-55.044,9.479-82.259-0.132c-44.559-15.736-41.75-70.011-19.026-89.587
	c11.006-9.48,23.943-14.186,37.947-16.33c7.382-1.132,14.893-1.419,19.386-1.822C577.469,82.438,590.94,83.866,603.937,88.693z
	 M1006.304,48.765c-0.012,56.807-0.041,113.613,0.021,170.419c0.011,9.534,5.339,14.564,15.064,14.567
	c64.804,0.02,129.606,0.013,194.409,0.001c1.75,0,3.5-0.151,5.429-0.241c0-11.274,0.176-21.936-0.132-32.581
	c-0.071-2.459-1.385-5.155-2.843-7.243c-3.217-4.606-8.238-4.988-13.41-4.982c-45.479,0.051-90.958,0.034-136.437,0.014
	c-2.272-0.001-4.544-0.221-7.2-0.359c0-9.974,0-19.451,0-28.928c0-33.318,0.018-66.636-0.015-99.953
	c-0.008-7.845-4.733-14.074-11.76-14.262c-14.116-0.378-28.249-0.112-42.794-0.112C1006.478,46.797,1006.304,47.78,1006.304,48.765z
	"/>
</svg>
