<svg xmlns="http://www.w3.org/2000/svg" width="1565.921" height="406.479" viewBox="0 0 1565.921 406.479"><path fill-rule="evenodd" clip-rule="evenodd" d="M583.007 335.435c9.997-16.646 19.678-32.362 28.894-48.348 2.773-4.81 5.957-6.994 11.536-6.547 5.442.437 10.948.096 17.313.096-.942 1.82-1.484 3.09-2.213 4.24-14.242 22.502-28.546 44.965-42.712 67.515-1.598 2.545-3.286 3.64-6.357 3.565-15.98-.385-12.26 2.044-20.652-11.524-1.917-3.1-3.8-6.22-6.012-9.848-3.422 5.732-6.69 10.934-9.67 16.295-1.993 3.584-4.736 4.665-8.812 5.2-8.9 1.167-13.968-2.158-18.58-9.892-12.182-20.434-25.402-40.248-38.2-60.315-.876-1.374-1.67-2.802-2.935-4.935 8.165 0 15.717-.284 23.216.216 1.692.114 3.594 2.715 4.735 4.577 9.046 14.755 17.93 29.61 26.874 44.426.933 1.546 1.946 3.043 3.326 5.192 3.433-5.475 6.734-10.373 9.56-15.533.616-1.13-.055-3.433-.84-4.785-5.68-9.787-11.544-19.466-17.338-29.186-.832-1.395-1.6-2.83-2.79-4.95 6.38 0 12.136-.302 17.822.192 1.627.14 3.475 2.333 4.493 4.023 3.077 5.106 5.796 10.428 9.136 16.547 3.165-5.886 6.077-10.993 8.68-16.253 1.678-3.393 4.018-4.98 7.86-4.805 4.636.21 9.286.05 14.686.05-.927 1.868-1.477 3.173-2.19 4.38-5.923 10.03-11.795 20.094-17.88 30.025-1.425 2.325-1.51 3.98.067 6.248 3.032 4.358 5.72 8.953 8.984 14.137zm373.192-4.09c11.455-5.32 16.983-14.576 15.69-26.284-1.408-12.778-8.352-20.65-20.995-23.3-3.708-.775-7.59-.98-11.393-1-19.312-.096-38.627-.054-57.94-.04-7.48.005-8.643 1.15-8.652 8.72-.027 20.48-.018 40.96.008 61.438.002 1.58.24 3.16.362 4.683h21.238v-19.81c6.512 0 12.593.702 18.45-.147 12.04-1.745 21.28 1.854 28.02 12.054 1.355 2.05 3.297 3.76 5.153 5.417 1.206 1.077 2.726 2.48 4.144 2.527 7.69.25 15.392.118 23.09.118l.76-1.277-22.252-21.05c1.944-.922 3.126-1.493 4.317-2.045zm-61.716-32.034c.923-.17 1.847-.487 2.77-.49 13.14-.03 26.29-.307 39.41.173 3.46.127 7.788 1.792 9.95 4.283 1.786 2.06 2.284 7.11.957 9.508-1.566 2.83-5.643 5.85-8.75 5.98-14.587.62-29.215.276-44.337.276v-19.73zm-501.986-15.908c-.013 21.833-.044 43.665.002 65.497.012 5.35 1.77 6.97 7.356 6.977 24.166.026 48.33.017 72.497-.006 1.266 0 2.53-.242 3.742-.367.13-.854.26-1.34.265-1.826.03-2.833.057-5.666.03-8.5-.056-6.044-1.317-7.37-7.327-7.386-15.832-.038-31.665-.013-47.498-.014h-8.19V326.4h49.55v-16.484h-49.5v-11.09h5.8c16.665 0 33.33-.023 49.997.02 3.737.01 6.806-.927 7.08-5.218.262-4.11.056-8.248.056-12.675h-83.615c-.12 1.157-.244 1.803-.245 2.45zm673.394 66.077c12.505-6.657 19.376-17.025 19.318-31.388-.06-14.344-6.734-25.12-19.56-31.156-22.81-10.737-46.09-10.737-68.922-.083-13.024 6.077-19.797 16.91-19.76 31.52.034 14.612 7.087 24.938 19.885 31.506 10.603 5.44 22.02 7.27 33.817 7.236 12.31.083 24.237-1.79 35.222-7.637zm-19.52-51.425c9.702 3.15 14.745 10.824 14.524 20.893-.22 9.974-5.33 16.875-15.16 19.86-9.797 2.972-19.732 2.993-29.517-.034-9.954-3.08-15.17-10.288-15.23-20.373-.058-10.17 4.93-17.36 14.983-20.46 4.863-1.5 10.053-1.94 15.272-2.894 5.095.975 10.29 1.44 15.126 3.01zm-763.073-6.617c0 18.98.03 37.963-.027 56.944-.01 3.428.423 6.89 4.372 7.24 5.69.504 11.46.13 17.713.13v-47.22c2.52 2.11 4.282 3.556 6.014 5.04 13.904 11.918 28.4 23.23 41.484 35.99 8.228 8.024 17.062 5.894 26.478 6.187 0-23.62.096-46.584-.184-69.544-.02-1.81-2.494-4.958-4.09-5.136-5.668-.632-11.45-.246-17.715-.246v47.038c-1.98-1.6-3.267-2.58-4.494-3.632-15.68-13.43-31.33-26.892-47.057-40.263-1.588-1.35-3.576-2.925-5.48-3.07-5.424-.415-10.9-.146-17.014-.146v10.688zm578.576-6.45c-.094-1.11-1.838-2.727-3.066-2.993-6.49-1.41-13.018-2.896-19.61-3.55-16.286-1.62-32.312-.7-47.173 7.2-12.54 6.668-20.27 16.702-20.47 31.33-.208 15.07 6.737 26.484 19.955 33.256 22.805 11.686 46.53 10.766 70.364 3.285 1.162-.364 2.594-2.262 2.62-3.472.203-9.658.32-19.332-.105-28.977-.08-1.858-2.573-5.084-4.085-5.164-9.2-.484-18.44-.242-28.6-.242.713 4.964-.167 11.013 2.34 13.23 3.17 2.8 9.098 2.48 14.17 3.577v5.616c-14.292 3.047-28.182 3.49-41.312-3.856-8.056-4.508-10.962-10.892-9.78-20.058 1.158-8.977 6.504-15.027 14.793-16.967 8.457-1.98 17.388-2.724 26.094-2.615 7.86.097 15.7 2.075 24.012 3.29 0-4.306.215-8.62-.146-12.89zm352.312 50.65c15.147-.26 30.35.183 45.426-.99 15.89-1.236 24.136-11.885 23.76-28.343-.324-14.262-10.065-24.144-25.04-25.374-1.99-.162-3.99-.294-5.987-.3-18.99-.044-37.982-.09-56.974-.063-6.8.01-8.018 1.336-8.022 8.35-.015 20.658-.005 41.315-.005 61.974v4.55h20.513v-19.797c2.422 0 4.376.027 6.33-.006zm-6.134-36.502c.89-.174 1.66-.456 2.43-.458 13.12-.025 26.24-.035 39.36-.004 4.992.012 9.32 1.558 11.32 6.523 2.498 6.205-1.92 13.366-9.025 13.578-14.575.435-29.172.13-44.086.13v-19.77zm-493.156-12.152c.193-3.185-1.293-4.34-4.104-5.06-14.403-3.678-29.033-4.615-43.604-2.137-7.04 1.198-14.263 3.59-20.42 7.146-7.965 4.597-10.246 14.82-6.644 22.904 2.778 6.236 8.006 10.187 14.197 11.727 9.63 2.394 19.542 3.666 29.355 5.285 5.564.916 11.294 1.1 16.72 2.502 4.405 1.14 4.736 5.278.86 7.737-2.052 1.302-4.543 2.457-6.91 2.623-7.446.52-15.038 1.443-22.367.542-10.624-1.308-21.07-4.074-31.96-6.294 0 4.072.172 8.557-.06 13.02-.163 3.138 1.144 4.515 4.07 5.086 9.298 1.813 18.493 4.466 27.87 5.462 12.788 1.357 25.68 1.112 37.803-4.31 9.78-4.372 14.89-12.18 14.5-21.842-.354-8.828-5.577-15.302-16.457-18.237-7.976-2.153-16.33-2.954-24.545-4.154-6.087-.89-12.275-1.178-18.308-2.32-1.883-.357-3.402-2.63-5.088-4.025 1.544-1.725 2.78-4.07 4.707-5.02 2.445-1.206 5.424-1.554 8.213-1.795 13.9-1.198 27.584.283 42.112 4.086.002-4.68-.186-8.816.063-12.926zm450.583-6.255c-5.397.084-7.023 1.734-7.05 7.287-.054 10.498.033 20.997-.046 31.495-.05 6.473-2.052 12.366-7.41 16.217-8.908 6.4-18.798 6.52-28.468 2.206-8.634-3.853-11.326-11.57-11.23-20.587.103-9.832.005-19.665.03-29.497.01-3.468-.777-6.652-4.78-6.954-4.915-.37-9.876-.09-14.893-.09 0 15.502-1.13 30.56.317 45.363 1.46 14.94 10.827 25.06 25.342 29.813 12.116 3.97 24.31 3.91 36.29-.36 14.574-5.197 23.302-15.866 24.464-31.107 1.084-14.233.23-28.613.23-43.804-4.54 0-8.67-.05-12.795.013z"/><path fill-rule="evenodd" clip-rule="evenodd" fill="#E92330" d="M45.287 45.007h25.038c9 0 18.01.283 26.993-.084 7.91-.323 13.076 2.898 17.088 9.65 24.15 40.65 48.523 81.166 72.828 121.723 1.357 2.266 2.768 4.5 4.562 7.413 1.34-1.94 2.378-3.335 3.3-4.802 7.264-11.562 14.394-23.21 21.83-34.66 1.922-2.956 1.876-5.065.09-8.053-16.912-28.295-33.664-56.687-50.457-85.054-1.008-1.7-1.957-3.435-3.22-5.657 1.653-.192 2.868-.454 4.083-.457 12.332-.028 24.666.107 36.996-.062 6.557-.09 11.03 2.574 14.054 8.387 6.835 13.14 13.873 26.174 20.836 39.247.926 1.74 1.89 3.457 3.32 6.067 1.252-2.196 2.13-3.658 2.933-5.16 6.974-13.07 14.09-26.067 20.828-39.257 3.35-6.56 8.152-9.486 15.548-9.32 13.14.294 26.29.082 40.25.082-1.134 2.1-1.914 3.67-2.805 5.175-16.696 28.23-33.32 56.504-50.21 84.617-2.358 3.925-2.632 6.693-.014 10.623 7.29 10.944 14.082 22.22 21.09 33.354.94 1.493 1.98 2.924 3.355 4.94 1.36-2.19 2.32-3.697 3.24-5.23 24.564-40.987 49.238-81.912 73.586-123.03 4.406-7.44 9.872-10.813 18.6-10.583 16.786.445 33.593.13 51.27.13-1.254 2.15-2.085 3.69-3.022 5.167-38.292 60.308-76.616 120.595-114.825 180.955-1.844 2.912-3.817 3.997-7.198 3.927-9.828-.203-19.67-.276-29.494-.01-7.483.202-12.58-2.867-16.33-9.272-8.57-14.645-17.423-29.124-26.587-44.38-1.288 1.922-2.308 3.31-3.19 4.78-7.72 12.844-15.61 25.59-23.042 38.598-4.058 7.104-9.442 10.633-17.788 10.303-9.817-.388-19.666.062-29.49-.225-1.93-.055-4.606-1.308-5.598-2.863-39.22-61.496-78.283-123.09-117.36-184.675-.262-.415-.425-.89-1.087-2.305zm1201.385 5.58c0 55.468-.004 110.936.004 166.403 0 11.797 4.916 16.74 16.614 16.743 45.974.005 91.947.114 137.92-.088 9.79-.043 19.675-.543 29.34-2 44.98-6.776 80.302-35.86 84.23-84.65 2.715-33.737-9.634-67.49-43.59-86.754-19.306-10.95-40.404-15.103-62.352-15.157-52.302-.128-104.605-.044-156.908-.046h-5.26c.002 2.28.002 3.916.002 5.55zm61.734 138.226c-4.377.058-6.093-.957-6.057-5.777.218-29.146.19-58.293.02-87.44-.025-4.34 1.168-5.728 5.62-5.702 30.812.178 61.627-.125 92.435.253 7.546.093 15.35 1.228 22.55 3.453 22.78 7.04 34.894 25.855 33.475 50.575-1.26 21.93-16.296 38.68-39.27 42.75-8.128 1.44-16.54 1.55-24.834 1.737-12.152.274-24.315.07-36.475.07-15.82 0-31.645-.127-47.464.08zM936.668 172.17c23.324-10.504 37.307-27.765 39.1-53.927 2.015-29.393-11.66-57.723-43.854-68.264-11.845-3.88-24.046-5.005-36.44-4.993-51.33.05-102.663.015-153.996.024-11.2.004-16.026 4.863-16.028 16.158-.013 55.666-.01 111.33.004 166.997 0 1.76.157 3.522.236 5.188h55.496c0-15.228.19-30.052-.114-44.865-.094-4.58 1.452-5.534 5.688-5.506 26 .17 52 0 77.997.225 2.46.02 5.525 1.38 7.252 3.15 12.68 13.005 25.168 26.2 37.55 39.492 5.11 5.484 11.12 8.037 18.607 7.96 16.33-.164 32.666-.04 49-.066 1.164-.002 2.328-.26 4.47-.515l-56.254-56.298c4.286-1.804 7.822-3.203 11.285-4.763zm-155.18-81.797c1.99-.11 3.776-.292 5.563-.293 32.64-.018 65.28-.068 97.92.055 4.283.017 8.676.496 12.824 1.535 12.846 3.22 19.908 11.982 19.867 24.014-.04 12.3-7.806 22.06-20.242 25.123-3.042.75-6.244 1.185-9.374 1.192-34.14.086-68.277.06-102.415.05-1.29 0-2.578-.163-4.144-.27V90.373zM542.79 42.106c-23.048 2.075-45.31 7.152-65.99 17.952-37.67 19.675-55.325 54.712-48.057 96.304 5.127 29.332 22.867 49.238 48.694 62.586 22.723 11.743 47.19 16.634 72.52 18.145 28.912 1.725 57.188-1.323 84.468-11.333 21.908-8.038 40.905-20.222 53.473-40.582 20.552-33.296 19.737-93.145-32.852-122.667-28.407-15.946-59.346-20.78-93.046-21.56-5.256.307-12.252.53-19.21 1.156zm61.145 46.587c38.273 14.217 40.687 53.902 29.695 76.627-5.99 12.383-16.187 20.334-28.887 24.613-27.346 9.215-55.044 9.48-82.26-.132-44.558-15.735-41.75-70.01-19.025-89.586 11.006-9.48 23.943-14.186 37.947-16.33 7.382-1.132 14.893-1.42 19.386-1.822 16.676.376 30.147 1.804 43.144 6.63zm402.367-39.928c-.012 56.807-.04 113.613.02 170.42.012 9.533 5.34 14.563 15.065 14.566 64.803.02 129.605.014 194.408.002 1.75 0 3.5-.15 5.43-.24 0-11.275.175-21.937-.133-32.582-.07-2.46-1.385-5.155-2.843-7.243-3.217-4.606-8.238-4.988-13.41-4.982-45.48.05-90.958.034-136.437.014-2.272-.002-4.544-.222-7.2-.36v-28.928c0-33.318.018-66.636-.015-99.953-.008-7.846-4.733-14.075-11.76-14.263-14.116-.378-28.25-.112-42.794-.112-.158 1.692-.332 2.675-.332 3.66z"/></svg>